<svg xmlns="http://www.w3.org/2000/svg" viewBox="0 0 138.97 111.3"><defs><style>.cls-1{fill-rule:evenodd;}</style></defs><g id="Layer_2" data-name="Layer 2"><g id="OBJECTS"><path class="cls-1" d="M110.13,30.06h1.62l.06,0,.07,0,.07,0,.07,0,.09,0,.09.06.09.08.1.1.09.13.07.15,0,.17,0,.17v.16l0,.14,0,.12-.05.1,0,.08,0,.07,0,.06-.31.35-.3.35-.26.29,0,.07-.3.37-.31.38-.16.2-.15.19-.16.2-.15.19-.16.2-.15.2-.16.21-.15.2-.15.2-.15.21-.15.21L109,36l-.15.21-.14.21-.15.21-.14.21-.13.22-.07.1-.07.11-.06.11-.07.1-.06.11-.07.11-.06.11-.06.1-.06.11-.06.11-.06.1-.06.11-.06.11,0,.11-.06.11,0,.1-.06.11,0,.11-.05.11,0,.1,0,.11,0,.11,0,.11,0,.11,0,.1,0,.11,0,.11,0,.11,0,.1,0,.11,0,.11,0,.1,0,.11,0,.11,0,.1,0,.11,0,.1,0,.11,0,.11,0,.1,0,.1,0,.11,0,.1v.11l0,.1V42l0,.1v1.52l0,.1v.1l0,.09,0,.1,0,.1,0,.1,0,.1,0,.1,0,.1,0,.09,0,.1,0,.1,0,.08,0,.08,0,.08,0,.08,0,.08,0,.08,0,.07,0,.07h0l0,.08,0,.08,0,.07,0,.08,0,.08,0,.07,0,.08,0,.07,0,.08,0,.07,0,.08,0,.07.06.07,0,.08.06.07,0,.07.06.07.06.07.06.08.06.07.06.07.06.07.07.07.06.07.07.07.06.07.07.07.07.06.07.07.07.07.07.07.08.07.07.06.07.07.08.07.07.06.08.07.08.06.15.13.16.13.16.13.16.13.16.12.17.13.17.12.16.12.17.13.25.17.24.18.26.18.25.18.25.19.13.09.13.1.13.09.13.1.12.1,0,0h0l.06,0,0,0,.07,0,.07,0,.17,0,.19.06.21.06.22.07.24.06.51.14.5.14.58.16.54.15.26.07.26.08.24.07.24.07.22.06.2.07.1,0,.09,0,.09,0,.09,0,.08,0,.09,0,.08,0,.08,0,.09,0,.08.05.07,0,.07,0,.07.07.09.09.1.14,0,.09.05.11,0,.12h0l0,.15v.16h0l0,.17,0,.16h0l-.06.14-.09.12-.07.1-.17.14-.11.06-.35.17-.32.15-.33.16-.34.15-.68.32-.71.32-.72.34-.36.17-.37.17-.37.17-.37.18-.38.18-.37.18-.38.18-.38.19-.37.18-.38.2-.38.19-.17.09h0l-.19.1-.19.1-.18.11-.19.1-.18.1-.18.11-.19.11-.18.1-.18.11-.18.11-.18.11-.18.11-.18.11-.18.11-.17.11-.18.11-.18.12-.17.11-.17.12-.17.11-.17.12-.17.11-.17.12-.16.12-.17.12-.16.12-.16.12-.16.12-.16.12-.16.13-.15.12-.15.13-.16.12-.15.13-.14.12-.15.13-.14.13-.14.13-.14.13-.14.13-.13.13-.14.13-.13.13-.12.14-.13.13-.12.14-.12.13-.12.14-.12.13-.11.14-.11.14-.11.14-.11.14-.1.14,0,.07,0,.07,0,.07,0,.07,0,.07,0,.07,0,.07,0,.08,0,.07,0,.07,0,.07,0,.07,0,.07,0,.08,0,.07,0,.07,0,.08,0,.07,0,.07,0,.08,0,.07,0,.07,0,.08,0,.07,0,.08,0,.07,0,.08,0,.07,0,.07,0,.08,0,.08,0,.07,0,.08,0,.07,0,.08,0,.08,0,.07,0,.08,0,.08,0,.07,0,.06v0l0,.08,0,.08,0,.08V68l0,.08v.08l0,.08v2l0,.07v.15l0,.07v.08l0,.07,0,.07v.08l0,.07,0,.07,0,.08,0,.07,0,.07,0,.08,0,.07,0,.07,0,.08,0,.07,0,.07,0,.08,0,.07,0,.07,0,.08,0,.07.07.15.06.14.07.15.07.15.08.14.07.15.08.15.08.14.08.15.09.15.08.14.09.15.09.15L102,74l0,0,0,.07.15.23.09.14.11.16.11.17.11.18.05.09.06.09.05.09.06.1.05.09,0,.09,0,.09,0,.1,0,.09,0,.1,0,.1,0,.06,0,.06,0,.06,0,.07v.41l0,.15,0,.14,0,.12,0,.1-.06.1-.06.09-.07.09-.09.08-.09.08-.09.07-.11.06-.1,0-.1,0-.1,0-.1,0-.1,0h-.62l-.06,0h-.06l-.06,0h-.06l-.1,0-.1,0-.1,0-.09,0-.1,0-.16-.08-.16-.07-.08,0-.07,0-.06,0,0,0-.06,0,0,0h-.09l-.83-.12-.83-.12-.42-.06L97.43,77,97,76.94l-.41,0-.41,0-.41,0-.21,0-.2,0-.21,0-.2,0-.21,0-.2,0h-.2l-.21,0-.2,0h-.21l-.2,0h-.21l-.26,0H89.7l-.26,0h-.25l-.26,0-.25,0-.26,0-.25,0-.26,0-.25,0-.25,0-.26,0-.25,0-.25,0-.25,0-.25,0-.26,0-.25,0-.25,0-.25,0-.25.06-.24,0-.25,0-.25.06-.25.06-.25.06-.24.06-.25.07-.25.06-.24.07-.25.07-.24.08-.25.07-.24.08-.25.08-.24.08-.24.08-.25.08-.24.09-.24.09-.24.09-.24.09-.25.09-.24.1L79,79l-.24.1-.23.1-.24.1-.24.11-.24.1-.24.11-.23.11-.24.11-.22.11-.23.12-.23.11-.22.12-.22.12-.22.12-.22.12-.22.13-.21.13-.22.12-.21.13-.21.14-.21.13-.21.14-.21.13-.2.14-.21.14-.2.15-.2.14-.2.15-.2.14-.2.15-.19.15-.2.16-.19.15-.19.16-.19.15-.19.16-.19.16-.18.16-.19.17-.18.16-.19.17-.18.17L70,84.8l-.18.17-.18.17-.09.09-.08.09-.18.17-.17.18-.18.18-.17.18-.17.18-.17.18-.17.18-.17.19-.17.18-.17.19-.16.19-.17.19-.16.19-.16.2-.16.19-.16.2-.16.2-.16.19-.16.2-.16.2-.15.21-.16.2-.15.2-.15.21-.15.21-.24.32-.24.33-.24.34-.23.33-.48.68-.24.34-.24.34-.25.34-.24.34-.13.17-.13.17-.12.17-.13.17-.13.17-.13.17-.13.17-.14.17-.13.17-.14.17-.13.17-.13.15-.1.13-.09.1-.11.14L61,96l-.14.16-.14.17-.08.09-.08.08-.08.09-.08.09-.08.09-.08.08-.08.09-.09.08-.08.08-.09.08-.09.08-.06,0-.06,0,0,0-.07,0-.07,0-.08,0-.09,0-.12,0-.13.05-.18,0-.21,0h-.27l-.27-.06L58,97.58l-.13-.07-.09-.06-.07,0-.06-.05-.06,0,0,0-.06-.05,0,0,0,0-.05,0,0,0,0-.05,0-.06-.07-.09L57,96.7,57,96.6l-.06-.1-.06-.1-.05-.1-.06-.11,0-.1,0-.11-.05-.1,0-.11,0-.11,0-.11-.05-.11,0-.11,0-.11,0-.11,0-.11v0l0-.07,0-.12-.07-.22L56,94.32,56,94.09l-.06-.23-.07-.22-.13-.44L55.63,93l-.06-.21-.06-.19,0-.19-.06-.18,0-.08,0-.08,0-.08,0-.07,0-.07,0-.07,0-.06,0-.06,0,0,0,0v0l0,0v0h0L55,91.33l-.08-.13-.09-.14-.08-.13-.09-.13-.09-.13-.09-.13-.09-.14-.09-.13-.1-.13-.1-.12L54,89.89l-.1-.13-.1-.13-.1-.13-.1-.12-.1-.13-.11-.12-.1-.13-.11-.12-.1-.12L53,88.63l-.11-.12-.11-.12-.11-.12-.12-.12L52.44,88l-.11-.12-.12-.11-.11-.12L52,87.57l-.12-.12-.12-.11-.12-.11-.12-.12L51.38,87l-.12-.11-.12-.1L51,86.68l-.12-.11-.13-.11-.12-.1-.13-.1-.13-.11-.13-.1-.12-.1-.13-.1-.13-.09-.13-.1-.13-.1-.14-.09-.13-.09-.13-.1-.13-.09-.14-.09L48.81,85l-.14-.08-.13-.09-.14-.08-.13-.09-.14-.08L48,84.51l-.13-.08-.14-.08-.19-.1-.19-.1-.08-.05-.1,0L47,84l-.19-.1-.19-.09-.2-.09-.19-.09L46,83.5l-.19-.09-.2-.08-.19-.07-.2-.08L45,83.1l-.2-.07L44.65,83l-.2-.06-.2-.07-.2-.06-.2-.06-.2-.06-.2-.06-.2,0-.2-.05-.2,0-.21,0-.2,0-.2,0-.21,0-.2,0-.21,0-.2,0-.21,0-.21,0-.21,0-.21,0-.2,0-.21,0-.21,0-.21,0h-.21l-.22,0-.21,0H35.66l-.22,0h-.22l-.22,0-.22,0-.22,0-.3,0L34,82l-.31,0-.32,0-.31,0-.31,0-.64.08-.63.08-.32,0-.33,0-.32,0-.33,0-.32,0-.17,0h-.3l-.06,0h0l-.06,0-.15,0-.16,0-.17,0-.1,0-.09,0-.11,0-.1,0h-.11l-.11,0h-.68l-.08,0h-.08l-.09,0-.09,0h0l-.09,0-.09,0-.09,0-.09-.06-.09-.06-.09-.07-.09-.07-.08-.08-.07-.09-.07-.09L26.2,82l-.06-.1,0-.09-.05-.12,0-.15,0-.15v-.53l0-.08,0-.07,0-.08,0-.06,0-.07,0-.06,0-.07.05-.12.05-.13L26.3,80l.06-.12.06-.13.07-.12.06-.12.06-.12.07-.13.06-.11.07-.12.13-.23.12-.21.11-.19.1-.17.08-.14,0,0,0,0h0l0-.07,0-.09,0-.1,0-.09,0-.1,0-.09,0-.1,0-.09,0-.1,0-.09,0-.1,0-.09,0-.1,0-.09,0-.1,0-.1,0-.09,0-.1,0-.1,0-.09,0-.1,0-.1,0-.1,0-.09,0-.1,0-.1,0-.1,0-.1,0-.09,0-.1,0-.1,0-.1,0-.1v-.1l0-.1,0-.1v-.1l0-.1v-.1l0-.1V70.59l0-.12v-.12l0-.12v-.12l0-.12,0-.12,0-.12,0-.12,0-.12,0-.12,0-.12,0-.12,0-.12,0-.11,0-.12,0-.12,0-.11,0-.12,0-.11,0-.12,0-.11L28,68l0-.11,0-.11,0-.11,0-.12,0-.11,0-.11,0-.11-.05-.11,0-.11,0-.11,0-.1,0-.11,0-.11,0-.11,0-.1,0-.11-.05-.1L27.25,66l-.05-.1-.05-.1,0-.11-.05-.1-.06-.1,0-.1-.06-.1-.06-.1-.05-.1-.06-.1-.06-.1-.06-.09-.06-.1-.06-.1-.06-.09-.07-.1-.06-.09-.07-.09-.06-.1-.07-.09L26,64l-.07-.09-.07-.09-.07-.09-.07-.09-.07-.09-.07-.09-.08-.08-.07-.09-.08-.08-.07-.09L25.21,63l-.08-.08-.08-.09L25,62.77l-.08-.08-.08-.08-.08-.08-.09-.08-.08-.08-.09-.07-.08-.08-.09-.08-.09-.07L24.12,62,24,61.92l-.09-.07-.09-.07-.09-.07-.09-.07-.1-.07-.09-.07-.1-.07-.09-.06-.1-.07-.1-.07-.1-.06-.1-.06-.1-.07-.1-.06-.1-.06-.11-.06-.1-.06-.11-.06-.1-.05-.11-.06L22,60.57l-.11,0-.11-.06-.11-.05-.11,0-.11,0-.12-.05-.11,0-.12-.05-.11,0-.12,0-.12,0-.11,0-.08,0-.08,0-.09,0-.08,0-.09,0-.09,0-.1,0-.09,0-.1,0-.1,0-.21-.05-.21,0-.22,0-.22-.05-.23,0-.47-.1-.49-.11-.24,0-.25-.05-.24-.06L16.66,59l-.12,0-.13,0-.12,0h-.05l-.08,0-.12,0-.12,0-.13,0-.12,0-.12,0-.12,0-.12,0-.13,0-.12,0-.11,0-.12,0-.12,0-.12-.05-.12,0-.11,0-.11-.06-.12,0L14,58.15l-.11-.06L13.8,58,13.69,58l-.11-.06-.1-.07-.11-.08-.06,0-.07-.06-.08-.07-.08-.1L13,57.35l-.08-.17L12.86,57l0-.24,0-.26.09-.24.12-.19.13-.14.13-.1.11-.07.09,0,.09,0,.07,0,.07,0h.06l.06,0,.1,0h1.49l0,0h0l.22-.06.22,0,.21-.06.21-.06.21-.06.21-.06L17,55l.2-.06.21-.06.2-.07.2-.07.19-.07.1,0,.1,0,.1,0,.09,0,.1,0,.1,0,.1,0,.09,0,.15-.06.15-.07.14-.06.15-.07.14-.07.15-.06.14-.07.14-.07.14-.07.14-.07.14-.07.14-.07.14-.08.13-.07.14-.08.13-.07.14-.08.13-.07.13-.08.13-.08h0l.12-.06.13-.08.14-.07.13-.08.13-.07.13-.08.13-.08.13-.07.13-.08.13-.08.13-.09.13-.08.13-.08.13-.08.12-.09.13-.09.12-.08.13-.09.12-.09.13-.09.12-.09.12-.09.13-.1.12-.09.12-.09.12-.1.12-.1.12-.09.12-.1.12-.1.12-.1.12-.11.11-.1.12-.1.12-.11.12-.1.11-.11.12-.11.11-.11.12-.11.11-.11.12-.11.11-.12.11-.11.06-.06.06-.06.06-.06.05-.06.06-.06.05-.07.05-.06.05-.06,0-.06.05-.07.05-.06.05-.07.05-.06,0-.07.05-.07,0-.06.05-.07,0-.07,0-.07,0-.07,0-.07,0-.07,0-.07,0-.07,0-.07,0-.07,0-.07,0-.08,0-.07,0-.07,0-.08,0-.07,0-.08,0-.07,0-.08,0-.08,0-.07,0-.08,0-.08,0-.08,0-.08,0-.08,0-.08,0-.08,0-.08,0-.08,0-.08,0-.08,0-.08,0-.09v-.08l0-.08,0-.09V45l0-.09v-.17l0-.08V41.57l0-.19,0-.18L29,41l0-.19,0-.18,0-.19,0-.18,0-.19,0-.18,0-.19,0-.18,0-.18,0-.19,0-.18,0-.18,0-.18,0-.18,0-.18,0-.18,0-.18,0-.17,0-.18,0-.17-.05-.18L28.16,37l-.05-.17-.05-.17,0-.16L28,36.36l-.05-.16L27.85,36l-.05-.16-.05-.15-.05-.16-.06-.16-.05-.15-.06-.15L27.48,35l-.11-.29-.1-.29-.11-.27-.11-.26-.1-.26-.1-.24-.1-.23-.09-.22-.09-.21-.09-.19-.08-.18,0-.08,0-.08h0l0-.07,0-.09-.06-.15,0-.06,0-.1.06-.17.07-.25,0-.15v0l-.86.46-.08-.19-.06-.21v-.21l0-.21.05-.21.09-.19.12-.18.14-.15.17-.13.19-.09.21-.07.21,0h.21l.21,0,.54.16.56.16.56.16.29.09.29.08.29.08.29.08.29.08.3.07.29.08.3.07.3.08.15,0,.15,0,.15,0,.15,0,.15,0,.15,0,.15,0,.15,0,.15,0,.15,0,.15,0,.15,0,.16,0,.15,0,.15,0,.15,0,.15,0H34l.15,0,.16,0h.15l.15,0h2.54l.15,0h.14l.15,0,.15,0,.14,0,.15,0,.14,0,.15,0,.14,0,.15,0,.14,0,.14,0,.14,0,.15,0,.14,0,.14,0L39.6,31l.14,0,.14-.06.14-.05.14-.05.14-.06.14-.06.13-.06.14-.07.14-.06.14-.07.13-.08.07,0,.07,0,.07,0,.06,0,.07,0,.07,0,.07,0,.06,0,.07-.05.07,0,.07,0,.06-.05.07,0,.07-.05.06-.05.07-.05.07,0,.06-.05.07-.05.07,0,.06-.06.07-.05.06,0,.07-.06.07,0,.06-.06.07-.05L43,29l.07-.06.06-.06.07-.06.06-.06.07-.06.06-.06.07-.07.06-.06.07-.06.06-.07.07-.07.06-.07.07-.06.06-.07L44,28,44,28l.06-.07.06-.07.07-.08.06-.07.06-.08.07-.07.06-.08.06-.08.07-.08.06-.08.06-.08.06-.09.06-.08.07-.09.06-.08.06-.09.06-.09.06-.09.08-.11.07-.11.07-.11.08-.11.07-.11.07-.11.07-.11.07-.11.06-.11.07-.12.07-.11.06-.11.07-.11.06-.12.06-.11.07-.11.06-.12.06-.11.06-.11.06-.12,0-.11L46.6,24l.06-.11.05-.12.06-.12,0-.11,0-.12.05-.11.06-.12.05-.12,0-.12,0-.12.05-.11,0-.12,0-.12.05-.12,0-.12,0-.12,0-.12,0-.12,0-.12,0-.12,0-.12,0-.12,0-.13,0-.12,0-.12,0-.12,0-.13,0-.12,0-.12,0-.13,0-.12,0-.13,0-.12L48,20l0-.13,0-.12,0-.13,0-.13,0-.12,0-.13,0-.13,0-.13,0-.2,0-.2,0-.2,0-.2,0-.21,0-.2,0-.21,0-.2,0-.21,0-.21.05-.21,0-.1,0-.11,0-.1,0-.11,0-.1,0-.11,0-.1,0-.11,0-.11,0-.09v-.23l0-.14L49,15l0-.17v-.09l0-.1,0-.09,0-.09,0-.1,0-.1,0-.1,0-.06,0-.06,0-.06,0-.07,0-.07,0-.08.06-.09.07-.1.1-.1.12-.1.16-.11.19-.09.23-.06.23,0,.23,0,.21,0,.17.08.15.08.11.09.09.08.08.08,0,.07.09.1.07.1.07.09.07.09.07.1.07.09.13.19.13.19.13.19.13.19.12.18.12.19.12.19.12.19.11.18.23.37.23.36.11.18.11.18.11.17.12.18.11.17.11.17.12.16,0,.07.06.1.06.08.06.08.06.08.06.08.06.07.06.08.06.08.06.07.06.08.06.07.06.08.07.07.06.07.07.08.06.07.07.07.11.12.12.12.12.12.12.12.13.12.12.12.13.12.13.12.14.11.13.12.14.12.13.12.15.11.14.12.14.11.15.12.14.11.15.11.15.12.16.11.15.11.16.11.15.11.16.1.16.11.16.11.17.1.16.11.17.1.16.1.17.1.17.1.17.1.17.1.18.09.17.1.17.09.18.09.18.1.18.09.18.08.18.09.18.09.18.08.18.08.18.09.19.08.18.07.19.08.18.08.19.07.19.07.19.07.18.07.19.07.19.06.19.07.19.06L65,25l.19.06.19.05.2.06.19.05.19.05.19.05.19,0,.19,0,.2,0,.19.05.19,0,.19,0,.19,0,.2,0,.19,0,.19,0,.19,0,.19,0,.19,0,.19,0,.19,0h2.6l.18,0,.19,0,.08,0h.27l.09,0h.09l.09,0h.08l.09,0,.09,0H73l.08,0,.09,0,.09,0,.08,0,.09,0,.09,0,.08,0,.09,0,.08,0,.08,0,.09,0,.08,0,.09,0,.08,0,.08,0,.09,0,.08,0,.08,0,.08,0,.09,0,.08,0,.08,0,.08,0,.08,0,.08,0,.08,0,.08,0,.08,0,.08,0,.08,0,.08,0,.08,0,.07,0,.08-.05.08,0,.08,0,.07,0,.08-.05.07,0,.08-.05.08,0,.07-.05.07-.05.08-.05.07-.05.08,0,.07-.05.07-.05.08-.05.07-.05.07-.06.07-.05.07-.06.12-.09.11-.09.11-.1.11-.09.11-.1.11-.1L78,23l.11-.1.1-.1.1-.11.1-.1.1-.11.09-.11.1-.11.09-.11.09-.11.1-.11.09-.12.09-.11.09-.12.09-.12.08-.11.09-.12.08-.13.09-.12.08-.12.09-.12.08-.13.08-.13.08-.12.08-.13.08-.13.08-.13.08-.13.08-.13.08-.14.08-.13.07-.13.16-.27.15-.28.15-.27.15-.28.16-.28.3-.57.16-.28.15-.29.16-.28.16-.29.16-.29.16-.28,0,0,0-.06.09-.16.09-.18.12-.2.06-.12.06-.11.07-.12.07-.12.07-.13.08-.12.07-.13.09-.13.08-.12.09-.13.08-.13,0-.06,0-.06,0-.07,0-.06.05-.06,0-.06,0-.06.06-.06,0-.06.06-.06.06-.06.06-.06.06-.05.07-.06.07-.06.07-.05.08-.05.08,0,.08-.05.09,0,.09-.05.1,0,.11,0,.11,0,.12,0h.08l.18,0,.18,0h0l.15,0,.15.06.14.07.12.07.17.16.1.13.08.12,0,.1,0,.08,0,.07,0,.07,0,.07,0,.13,0,.14,0,.15,0,.14,0,.15,0,.14.07.26,0,.19,0,.09.08.27.09.28.09.28.08.27.09.28.1.27.09.28.09.27.1.27.1.27,0,.13,0,.13.06.14,0,.13.05.13.06.13.05.14.06.13,0,.13.06.13.06.13.06.13.07.16.08.17.08.16.08.16.08.16.08.16.08.15.09.16.09.16.08.15.09.16.09.15.1.15.09.15.09.16.1.15.1.15.1.14.1.15.1.15.1.14.11.15.1.14.11.14.1.14,0,.06.06.08.11.14.11.14.11.14.12.14.11.14.11.13.12.14.12.13.12.13.12.13.12.13.12.13.12.13.13.12.13.13.12.12.13.13.13.12.13.12.13.12.14.12.13.11.14.12.13.11.14.11.14.12.14.11.14.1.14.11.14.11.15.1.14.11.15.1.15.1.14.1.15.1.15.09.16.1.14.08.14.09.14.08.14.09.15.08.14.07.14.08.15.08.14.07.14.07.15.07.14.07.15.07.14.07.15.06.14.06.15.06.14.06.15.06.15.06.15,0,.14.06.15,0,.15.05.15.05.15.05.15.05.15,0,.15.05.15,0,.15,0,.15,0,.16,0,.15,0,.15,0,.16,0,.15,0,.16,0,.15,0,.16,0,.15,0,.16,0,.16,0,.15,0,.16,0,.16,0,.16,0,.16,0,.16,0H104l.16,0h.17l.16,0h5.61ZM38.32,79.17H39.5l.24,0H40l.24,0,.23,0,.24,0,.23,0,.24,0,.23,0,.23,0,.24,0,.23,0,.23,0,.23,0,.24,0,.23.05.23,0,.23,0,.23,0,.23.06.23.06.23.06.23.06.23.07.22.07.23.07.23.07.23.08.22.08.23.08.22.08.23.09.22.09.23.09.22.1.22.09.22.1.22.11.22.1.22.11.12.06.1,0,.22.12.22.12.16.09.15.09.16.09.16.09.16.09.15.1.16.1.15.1.16.1.15.1.15.1.15.1.15.11.15.1.15.11.15.11.15.11.15.11.15.12.14.11.15.11.14.12.15.12.14.12.14.12.14.12.14.12.14.12.14.13.14.12.14.13.13.13.14.12.13.13.13.13.13.14.14.13.12.13.13.14.13.13.13.14.12.13.13.14.12.14.12.14.12.14.12.14.12.15.12.14.11.14.12.15.11.14.11.15.11.15.11.15.11.15.11.14L57,89l.11.15.1.15.1.15.1.15.1.16.1.16.05.09.06.09,0,.1.05.09,0,.1,0,.09,0,.1,0,.1,0,.09,0,.1,0,.1,0,.1,0,.11,0,.1.06.21.07.21.07.21.06.22.07.22.13.43.06.22.07.21.06.21.07.21.06.2,0,.06,0,0,.08-.11.11-.13.14-.16.12-.15.13-.15L59.7,93l.13-.15.12-.16.12-.15.13-.16.12-.16.12-.16.12-.16.12-.16.24-.32.24-.33.24-.33.24-.34.49-.67.24-.34.25-.33.25-.34.25-.34.16-.22.16-.21.17-.22.17-.21.16-.22.17-.21.17-.21.18-.21.17-.21.17-.21.18-.2.17-.21.18-.2.18-.2.18-.2.18-.21.18-.19.18-.2.19-.2.18-.19.19-.2.19-.19.19-.19.19-.19.19-.18.09-.09.11-.1.19-.18.2-.19.2-.18.2-.18.2-.18.2-.17.21-.18.21-.17.2-.17.21-.17.21-.17.21-.17.22-.16.21-.17.22-.16.22-.16.22-.16.22-.15.22-.16.23-.15.22-.15.23-.15.23-.15.23-.14.23-.14.24-.14.23-.14.24-.14.24-.14.24-.13.24-.13.25-.13L75,78l.25-.12.25-.13.25-.12.25-.12.26-.11.25-.12.26-.11L77,77l.25-.11.26-.11.26-.1.26-.1.26-.11.26-.09.26-.1.26-.1.26-.09.26-.09.26-.09.26-.08.27-.09.26-.08.26-.08.27-.08.26-.07.27-.08.26-.07.27-.07.26-.07.27-.06.27-.07.27-.06.26-.06.27-.06.27,0,.27,0,.27-.05.27,0,.27,0,.27,0,.27,0,.27,0,.28,0,.27,0,.27,0,.27,0,.28,0,.27,0,.27,0,.28,0,.27,0,.28,0H89l.28,0h3.06l.27,0h.28l.28,0,.28,0,.22,0,.22,0,.21,0,.22,0,.21,0,.22,0,.21,0,.22,0,.21,0,.21,0,.22,0,.21,0,.42.06.42.06.42.06.42.06.42.07.42.07.84.13.69.11-.07-.12-.09-.16-.09-.16-.1-.17-.09-.16-.09-.17L99.51,74l-.09-.17-.08-.17-.09-.17-.08-.18-.08-.17L99,73l-.08-.17,0-.1,0-.09,0-.09,0-.09,0-.09,0-.09,0-.09,0-.1,0-.09,0-.09,0-.1,0-.09,0-.1,0-.09,0-.1,0-.1,0-.09,0-.1,0-.1v-.1l0-.1,0-.1v-.1l0-.1V68.44l0-.1v-.1l0-.1V68l0-.1,0-.1,0-.1,0-.1,0-.1,0-.1,0-.1,0-.1,0-.1v0l0-.07,0-.1,0-.09,0-.1,0-.1,0-.09,0-.1,0-.09,0-.1,0-.09,0-.1,0-.09,0-.1,0-.09,0-.09,0-.09,0-.1,0-.09,0-.09,0-.09,0-.09,0-.09L99.4,65l0-.09,0-.09,0-.08,0-.09,0-.09.06-.08,0-.09,0-.09,0-.08.06-.09,0-.08.06-.09.06-.08,0-.08.06-.09.06-.08.06-.08.06-.09.12-.16.13-.16.12-.16.13-.16.14-.16.13-.15.14-.16.14-.15.14-.15.14-.15.15-.15.15-.15.15-.14.15-.15.15-.14.16-.14.16-.14.15-.14.17-.14.16-.14.16-.13.17-.14.17-.13.16-.13.18-.13.17-.13.17-.13.18-.13.17-.13.18-.12.18-.13.18-.12.18-.12.18-.12.18-.13.18-.11.19-.12.18-.12.19-.12.19-.11.18-.12.19-.11.19-.11.19-.12.19-.11.19-.11.19-.11.19-.1.2-.11.19-.11.19-.1.19-.11.19-.1.2-.11h0l.18-.1.38-.21.38-.21.38-.2.38-.2.38-.2.38-.19.38-.2.37-.18.37-.19.36-.18.37-.19.71-.35.29-.14h0l-.59-.14-.51-.13-.52-.12-.25-.06-.23-.06-.23-.06L112.2,53,112,53l-.09,0-.09,0-.08,0-.09,0-.08,0-.07,0-.08,0-.09,0-.09-.05-.08,0,0,0-.14-.1-.12-.08-.12-.09-.12-.08-.12-.09-.12-.08-.25-.17-.25-.17-.25-.17-.26-.17-.26-.17-.18-.13-.18-.12-.18-.13-.19-.13-.18-.13-.19-.13-.18-.14-.18-.14-.18-.14-.1-.08-.09-.07-.09-.07-.09-.08-.09-.07-.09-.08-.09-.08-.09-.08-.09-.08-.09-.08-.08-.08-.09-.08L106.3,49l-.08-.08-.09-.09-.08-.08-.09-.09-.08-.09-.08-.09-.08-.09-.08-.09-.08-.1-.08-.09-.08-.1-.08-.09-.07-.1-.08-.1-.07-.1-.07-.11-.07-.1-.07-.11-.07-.1-.07-.11-.06-.11-.07-.11-.06-.11-.06-.12-.06-.11v0l0-.09,0-.12,0-.12-.05-.12,0-.13,0-.12,0-.13,0-.13,0-.14,0-.14,0-.15,0-.14,0-.15,0-.14,0-.15,0-.14,0-.14,0-.15V44l0-.14V42.44l0-.14v-.14l0-.14,0-.13,0-.14,0-.14,0-.13,0-.14,0-.13,0-.14,0-.13,0-.13,0-.13,0-.14,0-.13,0-.13.05-.13,0-.13,0-.13,0-.13,0-.12,0-.13.06-.13,0-.12.06-.13,0-.13.06-.12.06-.13.06-.12.06-.12.06-.12.06-.13.07-.12.06-.12.07-.12.06-.12.07-.12.07-.12.07-.12.07-.12.07-.11.07-.12.08-.12.07-.11.08-.12.07-.11.08-.12.07-.11.08-.12.08-.11.08-.11.08-.12.16-.22.16-.22.16-.22.17-.21.16-.22.17-.21.17-.21.17-.21L108,34l.17-.2.17-.2.17-.2.17-.2.17-.2.17-.19.16-.19.17-.19.33-.37.08-.09h-1.62l-.45,0h-.45l-.23,0h-3.2l-.18,0h-.18l-.17,0-.18,0-.17,0-.18,0-.17,0-.18,0-.17,0-.18,0-.17,0-.17,0-.18,0-.17,0-.17,0-.17,0-.17,0-.18,0-.17,0-.17-.05-.17,0-.17,0-.17-.05-.17-.05-.17-.05-.17,0-.17-.06L99,31.06,98.85,31l-.17-.06-.17-.06-.17-.06-.16-.06L98,30.69l-.17-.06-.16-.07-.17-.07-.17-.08-.16-.07L97,30.26l-.16-.07-.17-.08L96.52,30l-.16-.09-.17-.08L96,29.77l-.16-.09-.17-.09-.16-.09-.16-.09-.17-.11L95,29.2l-.17-.11-.17-.1-.16-.11-.17-.11-.17-.11L94,28.54l-.17-.11-.16-.12-.16-.12-.16-.12L93.22,28l-.16-.12-.15-.13-.16-.12-.15-.13-.15-.13-.16-.13-.15-.13L92,26.93l-.14-.14-.15-.13-.15-.14-.14-.14-.14-.14-.14-.14L91,26l-.14-.14-.14-.15-.14-.15-.13-.14-.13-.15-.14-.15L90,24.93l-.13-.16-.12-.15-.13-.16-.07-.09-.06-.06-.12-.16L89.29,24l-.12-.16-.11-.16-.12-.17-.11-.16-.12-.17L88.6,23l-.11-.17-.11-.17-.1-.17-.11-.17-.1-.17L88,22l-.1-.17-.09-.17-.1-.18-.1-.18-.09-.17-.1-.18-.09-.18-.09-.18-.08-.18L87,20.21,86.94,20l-.06-.14-.07-.15-.06-.14-.06-.14-.06-.15-.06-.14L86.51,19l-.06-.14-.06-.15-.06-.14,0-.14-.06-.15L86.11,18l-.1-.29-.11-.29-.1-.29-.09-.29-.1-.29-.09-.3-.1-.29,0-.11,0,.08-.06.11,0,.1-.11.19-.09.19-.09.16,0,.08,0,.07-.15.28-.16.27-.15.28-.15.28-.16.28-.15.28-.3.57-.16.28-.15.29-.16.29-.16.28-.16.29-.09.14-.08.15-.08.14-.09.14-.08.14-.09.15-.09.14-.09.14-.09.14-.09.14-.09.15-.09.14-.1.14-.1.14-.09.13-.1.14-.1.14-.11.14-.1.13-.11.14-.1.13-.11.14-.11.13-.12.13-.11.14-.12.13-.12.13-.12.13-.12.12-.12.13-.13.12-.13.13-.13.12-.14.12-.13.12-.14.12-.14.12-.14.11-.1.07-.09.07-.09.07-.09.06-.09.07L78.2,26l-.09.06-.09.06-.1.07-.09.06-.09.06-.1.06-.09.05-.1.06-.09.06-.1,0-.1.06-.09.05-.1,0-.1.06-.1.05-.09,0-.1.05-.1,0-.1.05-.1.05-.1,0-.1.05-.1,0-.1,0-.1,0-.1,0-.1,0-.1,0-.11,0-.1,0-.1,0-.1,0-.11,0-.1,0-.1,0-.11,0-.1,0-.1,0-.11,0-.1,0-.11,0-.1,0-.11,0-.1,0-.11,0-.1,0-.11,0-.11,0-.1,0-.11,0-.1,0-.11,0h-.11l-.1,0-.11,0h-.11l-.11,0h-.11l-.21,0-.21,0-.22,0h-.43l-.22,0H69.29l-.22,0-.22,0h-.22l-.22,0-.22,0-.21,0-.22,0-.22,0-.22,0-.21,0-.22,0-.22,0-.22,0-.21,0L66,27.8l-.21-.05-.22-.05-.22-.05-.21-.06L65,27.53l-.22-.06-.21-.06-.21-.07-.22-.06-.21-.07-.21-.07-.21-.07L63.25,27,63,26.92l-.21-.08-.2-.08-.21-.08-.21-.09-.2-.08-.21-.09-.2-.08-.2-.09-.2-.09-.2-.1L60.8,26l-.2-.1-.2-.09-.2-.1-.19-.1-.2-.11-.19-.1-.19-.1-.19-.11-.19-.11-.19-.1-.19-.11-.18-.12-.19-.11-.18-.11-.18-.12-.18-.11-.18-.12L57.4,24l-.17-.12-.18-.12-.17-.12-.17-.12-.17-.12-.17-.13-.17-.12L56,23.05l-.17-.13-.16-.13-.16-.13-.15-.13-.16-.13-.15-.13-.16-.13L54.78,22l-.15-.13-.14-.13-.15-.14-.14-.14-.14-.13-.14-.14-.13-.14-.14-.14-.08-.09-.09-.09-.08-.09-.08-.09-.08-.09-.07-.09-.08-.1L53,20.18l-.07-.09-.08-.1-.07-.09-.07-.09-.07-.1-.07-.09-.07-.09-.07-.1-.08-.11,0-.08-.13-.19-.13-.18-.12-.19-.12-.19-.12-.19-.12-.19-.12-.18-.23-.37-.2-.32h0l0,.18,0,.18,0,.18,0,.18,0,.18,0,.19,0,.18,0,.19,0,.19,0,.19,0,.2,0,.14,0,.15,0,.15,0,.14,0,.15,0,.15,0,.14,0,.15,0,.14,0,.15,0,.14,0,.15,0,.14,0,.15,0,.14,0,.14,0,.14,0,.14,0,.14,0,.15,0,.14,0,.14-.05.14,0,.13,0,.14,0,.14-.05.14,0,.14-.05.13,0,.14,0,.13-.06.14-.05.14-.06.13-.06.13,0,.14-.06.13-.06.14-.06.13-.07.13-.06.13-.06.13-.07.13-.06.13-.07.13-.07.13-.07.13-.06.13-.07.13-.08.13-.07.13-.07.12-.07.13L48,26.7l-.07.12-.08.13-.08.12-.08.13-.07.12-.08.13-.08.12-.09.12-.08.13-.08.12-.07.1-.07.1-.07.1-.08.1-.07.1-.07.1-.07.1-.08.09-.07.1-.07.09-.08.1-.07.09-.07.09-.08.09-.07.09-.08.09-.08.08-.07.09-.08.09-.07.08-.08.08-.08.09-.08.08-.07.08-.08.08-.08.08-.08.07-.08.08-.08.08L45,30.6l-.08.08-.08.07-.08.07-.08.07-.08.07L44.5,31l-.08.07-.08.07-.08.07-.08.06-.08.07-.09.06-.08.07-.08.06-.08.06-.09.06-.08.06-.08.06-.09.06-.08.06-.09,0-.08.06-.08,0-.09.06-.08,0-.09.05-.08,0-.09.05-.09,0-.08,0-.09.05-.09,0-.17.09-.17.09-.17.08-.18.08-.17.08-.18.08-.17.07-.18.07-.18.07-.17.06-.18.06-.18.06-.18,0-.17.06-.18.05-.18,0-.18,0-.18,0-.18,0-.17,0-.18,0-.18,0-.18,0-.18,0-.18,0-.17,0-.18,0-.18,0H34.73l-.17,0h-.18l-.17,0H34l-.17,0-.17,0-.18,0-.17,0-.17,0-.16,0-.17,0-.17,0-.17,0-.17,0-.16,0-.17,0-.16,0-.17,0-.16,0-.17,0-.16,0-.16,0-.16,0-.16,0-.32-.08-.32-.07-.31-.08L29.45,33,29.14,33l-.3-.08-.3-.08-.06,0,.06.13.12.26.12.27.12.28L29,34l.12.3.07.15.06.16.06.16.06.16.07.16.06.17.06.17.06.17.06.17.06.17.06.18.06.17.06.18.06.18.06.18.06.19.05.18.06.19.05.19.06.19.05.19.05.19,0,.19.05.2.05.19.05.2,0,.19,0,.2.05.2,0,.2,0,.2,0,.2,0,.21,0,.2,0,.2L31,41l0,.2,0,.21,0,.21,0,.2,0,.21,0,.21v.2l0,.21v2.5l0,.1v.21l0,.11,0,.1v.1l0,.1,0,.11,0,.1,0,.1,0,.11,0,.1,0,.1,0,.1,0,.1,0,.1,0,.11,0,.1,0,.1,0,.1,0,.1,0,.1,0,.1,0,.1,0,.1,0,.1,0,.1,0,.09,0,.1,0,.1,0,.1,0,.09-.05.1,0,.1-.05.09-.05.1-.06.09-.05.1-.05.09-.06.1-.05.09-.06.09-.06.09-.06.1-.06.09-.06.09-.07.09-.06.09-.07.09-.07.09-.07.08-.07.09-.07.09-.07.08-.08.09-.07.08-.12.13-.12.13-.12.13-.12.13-.13.12-.12.13-.12.12-.12.13-.13.12-.12.12-.12.12-.13.12-.13.12-.12.11-.13.12-.13.11-.13.12-.13.11-.13.11-.13.12-.13.11-.13.1-.13.11-.14.11-.13.11-.13.1-.14.11-.14.1-.13.1-.14.1-.14.11-.14.09-.14.1-.14.1-.14.1-.14.09-.15.1-.14.09-.14.09-.15.1-.14.09-.15.09-.15.09-.12.07h0l-.15.08-.15.08-.16.08-.15.07-.16.08-.16.08-.15.07-.16.07-.16.07-.16.07-.16.07L21,56.2l-.16.07-.16.07-.17.06-.16.07-.17.06-.16.06-.17.07-.17.06-.11,0-.12,0-.11,0-.12,0-.11,0L19,57l-.12,0-.11,0-.23.07-.23.06-.21.06.46.09.48.1.23.05.24,0,.24.06.23.05.23,0,.12,0,.11,0,.11,0,.11,0,.11,0,.12,0,.11,0,.1,0,.11,0,.11,0,.14.05.13,0,.14,0,.14.06.13,0,.14.06.13.05.13.06.14.06.13.06.13.06.12.07.13.06.13.06.13.07.12.07.13.07.12.07.12.06.12.08.12.07.12.07.12.08.12.07.11.08.12.08.11.08.12.08.11.08.11.08.11.08.11.09.11.08.11.09.11.08.1.09.11.09.1.09.1.09.1.09.1.09.1.1.1.09.1.1.1.09.09.1.1.1.09.1.09.1.09.1.1.1.08.1.09.1.09.11.09.1.08.1.09.11.08.11.08.11.08.1L28,63l.08.11.08.11.08.12.07.11.08.11.07.11.07.12.07.11.07.12.07.11.07.12.07.12.07.12.06.12.07.12.06.12.06.12.06.12.06.12.06.12.06.13.05.12.06.13.05.12.06.13,0,.12.05.13.05.13.05.13.05.12,0,.13.05.13,0,.13.05.13,0,.13,0,.14,0,.13,0,.13,0,.13,0,.14,0,.13,0,.14,0,.13,0,.14,0,.13,0,.14,0,.13,0,.14,0,.14,0,.14,0,.13,0,.14,0,.14,0,.14,0,.14,0,.14,0,.14,0,.14,0,.14v.28l0,.15v3.3l0,.11v.24l0,.11,0,.12v.12l0,.11,0,.12,0,.12,0,.11,0,.12,0,.11,0,.12,0,.11,0,.12,0,.11,0,.12,0,.11,0,.12,0,.11,0,.12,0,.11,0,.11,0,.12,0,.11,0,.11,0,.12,0,.11,0,.11,0,.11,0,.12,0,.11L30,78l0,.11,0,.11,0,.11,0,.11,0,.12,0,.11,0,.11,0,.11-.06.12,0,.07,0,.08,0,.07-.05.07-.08.16-.1.18-.11.19-.11.2v0h.16l.16,0,.15,0,.31,0,.31,0,.31,0,.31,0,.31,0,.63-.09.63-.08.32-.05.32,0,.32,0,.33,0,.32,0,.33,0,.23,0,.24,0,.24,0,.24,0,.23,0,.24,0H36l.23,0h2.13ZM14.74,56h0l0,0Zm97.63-5.35Z"/><path class="cls-1" d="M25.89,13l.21.17.21.16.07.06.14.11.2.18.2.17.21.18.21.17,0,0,.18.16.2.18.21.18.2.17.21.18.2.18.21.17.21.18.21.18.12.1.09.07.2.18.21.18.2.18.21.18.21.18.21.18.2.18.42.36.43.35.07.06.34.3.42.36.42.36.13.11.28.26.41.37.41.37.12.1.28.28.4.38.4.39.21.2.18.18.4.39.39.39.39.38v0l.38.37.39.38.79.76.18.82-.84,0-.93-.58-.47-.28L36,24.08h0l-.47-.29-.47-.3-.47-.29-.22-.14-.25-.16-.47-.31-.46-.31-.34-.22L32.7,22l-.45-.34-.45-.33-.3-.23L31.36,21l-.44-.36-.44-.35L30.12,20l-.07-.07-.42-.37-.43-.37L29,19l-.21-.18-.21-.19-.21-.19-.2-.19L28,18l-.21-.19-.08-.08-.12-.11-.2-.2-.2-.2L27,17l-.2-.2-.2-.2-.19-.19-.2-.2L26,16l-.17-.18,0,0-.19-.21-.18-.2-.19-.21L25,15l-.12-.14-.06-.08-.17-.22-.16-.22-.13-.17.06-.14.16-.54.42-.4.54-.14.14-.06Z"/><path class="cls-1" d="M23.55,20l.51.24.51.23h0l.48.24.5.25.5.25.32.16.18.09.5.26.5.26,1,.51,1,.48,0,0,.48.35.44.32.43,1.09-1.14.31-.51-.16-.57-.18-.06,0-.95-.47-1-.51-.5-.25-.51-.25-.18-.1L25.16,23l-.49-.27-.5-.26-.48-.26h0l-.49-.29-.48-.29-.27-.16-.11-.19,0-.08L22.2,21l-.19-.4v0l-.12-.38.39-.12h0l.44-.07.24-.05.09,0,.22,0Z"/><path class="cls-1" d="M3.29,43.93h.18L4.74,44l.67,0,.78.08.72.07.73.06.72.07.72.06.72.07.39,0,.33,0,.72.07.72.06.72.07.29,0,.43,0,.36,0,.36,0,.36,0,.36,0,.36,0,.29,0h.07l.35,0,.36,0,.36,0,.36,0,.36,0,.37,0,.23,0h.13l.36,0,.36,0,.36,0,.36,0,.36,0,.36,0,.34,0h0l.36,0,.36,0,.37,0,.36,0,.37,0,.36,0,.37,0,.36,0,.34.3-.32.31-.37,0-.37,0-.36,0-.37,0-.37,0-.36,0-.37,0-.37,0h0l-.33,0-.37,0-.37,0-.36,0-.37,0-.37,0-.36,0h-.13l-.24,0h-.73l-.37,0h-.36l-.37,0H12.55l-.73,0-.73,0-.72,0H10l-.39,0-.73,0-.73,0-.72,0-.73-.05-.73,0-.78,0-.67-.06-1.27-.11-.18,0-.94-.1-.51-.09-.15,0L1,45.59l-.7-.44L0,44.84l.31-.26.76-.33.6-.37h.68Z"/><path class="cls-1" d="M8.2,49.9h2.45L11,50h.31l.65.68-.69.65H7.31l-.3,0-.3,0h-.3l-.3,0-.3,0-.3,0-.3,0-.3,0-.3,0-.3,0-.3,0-.3,0-.3,0-.3,0H2.38l-.18-.11-.32-.16-.32-.13-.32-.25.25-.32.29-.19.28-.23.16-.14.13,0,.31-.06.21,0H3l.31,0,.31,0,.3,0,.31,0H4.5l.31,0H8.2Z"/><path class="cls-1" d="M20.23,70.56l-.35.9-.46.27L19,72l-.47.27-.46.27-.06,0-.87.5-.82.47-.12.07-.93.52-.47.26,0,0-.44.22-.47.24-.47.25-.07,0-.41.21-.48.23-.47.24-.16.09-.32.15-.48.23-.47.24-.24.12L10,76.8l-.24.12L9.54,77l-.24.13-.23.12,0,0-.2.1-.24.11-.23.12-.24.12-.23.12L7.66,78l-.24.12-.11.06-.12.06L7,78.36l-.23.12-.24.12-.1.05-.14.06L6,78.82l-.23.11h0l-.32,0H4.81l-.27,0h0l-.4-.09.09-.4v0l.14-.24.12-.25,0,0,.14-.28.13-.31h0L5,77.12,5.19,77l.13-.09.09-.07.23-.15.23-.15.23-.15.12-.08.1-.07.24-.14.23-.14L7,75.77l.24-.14.23-.14.24-.13.19-.12,0,0,.24-.13L8.44,75l.24-.13.24-.13.24-.12.24-.13.48-.25.48-.25.32-.16.16-.08.49-.23.49-.24.42-.2.07,0,.49-.21.49-.22.46-.2h0l.5-.2,1-.39.13,0,.88-.33.95-.35.06,0,.5-.19.5-.18.5-.19.5-.19Z"/><path class="cls-1" d="M37,93.36l-.66.8-.66.81-.31.37-.36.44-.33.4-.33.41-.34.4L34,97.1l-.26.29-.34.4-.34.4-.34.4-.09.1-.26.29-.36.38-.36.39-.35.38-.36.39-.37.38-.36.38-.36.38-.37.38-.07.07-.3.3-.38.37-.38.36-.39.36-.21.2-.18.15-.4.34-.21.17-.2.17-.2.16-.11.09-.14,0-.19,0H25.6l-.31,0-.28,0h0l-.4,0,0-.4v0l.08-.27.06-.3v0l.06-.33v-.13l.06-.18,0-.14L25,103l.19-.17.19-.18.18-.17.37-.36.17-.16.21-.19.39-.34.39-.34.38-.35.31-.28.07-.06.4-.34.39-.34.38-.34.39-.35.39-.34.38-.35L30.6,98l.38-.35.29-.26.1-.09.39-.34.39-.34.39-.35.29-.26.1-.08.4-.35.39-.34.39-.34.42-.38.36-.31.78-.7.78-.69.63-.07Z"/><path class="cls-1" d="M47.17,86.63l.06.41-.06.11-.22.36-.22.37-.22.37-.22.37-.21.37-.21.38-.22.37-.08.15-.13.23-.22.37-.21.37-.21.38-.22.38-.21.38-.21.37-.2.38-.21.39-.16.3-.05.08-.22.37-.21.38-.22.38-.21.38-.21.38-.22.38-.21.38-.21.38-.21.39-.21.38-.2.39-.21.38-.21.39-.21.38-.2.39-.14.26-.07.12-.42.77-.42.77-.41.77-.42.77-.41.78-.41.77-.41.77-.27.5-.6,1-.23.4L35.5,108l-.44.72v0l-.46.74-.45.73-.46.73-.92.32-.24-.94.36-.78.36-.79.36-.79v0l.36-.76.52-1.16.21-.42.5-1.07.27-.5.41-.77.41-.78.41-.77.42-.78.41-.78.42-.77.42-.78.07-.12.15-.26.21-.38.22-.39.22-.38.22-.38.22-.39.22-.38.23-.38.22-.38.22-.38.23-.38.22-.38.23-.37.22-.38.23-.38.23-.37,0-.09.19-.28.24-.37.25-.37.24-.36.25-.36.24-.37.25-.36.25-.36.25-.36.15-.22.1-.14.26-.35.26-.35.26-.35.26-.35.26-.34.26-.35.27-.34.07-.1.42-.09.4-.07Z"/><path class="cls-1" d="M69.92,91.92l.23.27.29.27.07.05.07.22.09.27.09.28,0,.12v3.42l0,.55v.54l0,.54,0,.54,0,.48v.06l0,.54,0,.54,0,.54,0,.54-.07,1.07v.31l-.06.76-.08,1.07,0,.54,0,.34,0,.19-.09.53,0,.13L70,107l-.1.53,0,.19-.08.34-.1.53-.11.54-.8.82-.73-.88-.06-.55L68,108l0-.35,0-.19,0-.55,0-.41v-.13l0-.55v-.19l0-.35,0-.54.06-1.07,0-.77,0-.31.08-1.07,0-.54,0-.53,0-.53,0-.54v-.06l0-.47,0-.53,0-.54,0-.53,0-.53,0-.53,0-.54v-.53l0-.26V93.38l0-.12.1-.26.09-.27.06-.21.07-.06.29-.27.22-.27.28-.29Z"/><path class="cls-1" d="M81.66,104l-.12-.25-.13-.25-.12-.24-.13-.25-.12-.25-.11-.23v0l-.12-.25-.12-.25-.11-.25-.12-.25-.12-.25-.08-.18-.13-.33-.21-.51-.17-.4,0-.11-.18-.52-.17-.52-.17-.52L79,97.64h0l-.15-.52-.31-1-.31-1,0-.11L77.94,94l-.15-.52-.15-.52-.16-.52-.16-.52-.15-.52L77,90.86l-.15-.47,0,0-.08-.26-.08-.25-.08-.25h0l-.07-.26-.08-.26-.07-.25h0l.09-.32.06-.32,0-.3v-.3l.17-.37.37.16.22.21.23.21.26.2.27.19h0l.1.24.11.25.11.25h0l.1.25.1.25.1.26,0,0,.17.46.2.52.19.52.19.51.18.52.19.51.18.52.33.92,0,.11.36,1,.35,1,.18.5h0l.17.52.18.51.17.51.17.51,0,.11.11.41.15.52.1.34,0,.18.07.26.07.27.06.26.07.26.08.26v0l.06.24.07.26.07.26.07.26.08.26.07.26.08.26-.46,1.1-1.07-.49Z"/><path class="cls-1" d="M86.55,83.48l0,0,.37.34.43.38.45.4.4.36.49.43.69.67.43.5.74.85.37.43.37.42.37.42h0l.36.42.36.43.37.43.37.42.36.43.37.42.37.42.38.42.15.17.22.25.37.42.38.41.37.42.38.41.19.21.19.2.19.21.19.2.19.2.2.21.19.2.19.2.2.2.19.2.2.2.13.14.06.06v1.29H97.55l-.07-.07-.13-.13-.2-.21-.2-.2-.2-.21-.2-.2-.19-.21-.2-.21-.2-.2-.19-.21-.19-.21-.2-.21-.19-.21L94.8,95l-.38-.42L94,94.17l-.38-.42-.22-.25-.15-.18-.37-.43-.37-.43L92.18,92l-.37-.43-.36-.43-.37-.44-.36-.43-.36-.43h0L90,89.42,89.65,89l-.36-.44-.7-.88-.42-.52-.53-.8-.33-.55L87,85.32l-.31-.51-.3-.48-.27-.43,0-.05,0-.41Z"/><path class="cls-1" d="M67.66.05,68,.22l.17.08,0,.2.07.32.06.31.06.31.06.32v0l0,.29,0,.32,0,.32,0,.31,0,.32,0,.32,0,.32,0,.31,0,.32,0,.32,0,.32,0,.31,0,.32,0,.32,0,.32,0,.31v.32l0,.32V13.8l0,.63v.63l0,1.25,0,.63v0l-.07.6,0,.12-.08.5-.08.54v.08l-.09.62-.09.63-.57.66-.58-.66-.09-.62-.09-.63v-.09l-.08-.54-.07-.5,0-.12-.06-.61v-10l0-.31,0-.31V6l0-.3,0-.31,0-.31,0-.3,0-.31,0-.3,0-.31,0-.3,0-.31,0-.3,0-.31,0-.3,0-.28v0l0-.31,0-.3,0-.3,0-.31,0-.19L66.32.5l.2-.24L66.79.1l.57-.1Z"/><path class="cls-1" d="M75.22,1.88l.11.45.12.36v.09l-.06.42-.06.41v0L75.26,4l-.06.41,0,.22,0,.19-.06.42L75,5.67,75,6.08l0,.41-.06.41,0,.42-.05.41,0,.41,0,.24,0,.18,0,.41,0,.42-.05.41,0,.41,0,.42-.05.41,0,.42,0,.41,0,.38v0l-.08.41-.15.83-.08.43-.08.39-.17.82-1,.83-.76-1,0-.84,0-.4,0-.45.06-.84,0-.42v0l.06-.38.07-.41.07-.42.07-.42.07-.41.08-.42.07-.41.07-.42.08-.42,0-.17,0-.24.08-.42L73,7l.09-.42.08-.41.09-.41.09-.42.1-.41.09-.41,0-.2,0-.22.1-.41.1-.38v0L74,2.89l.12-.41,0-.09.26-.27.3-.37L75,1.53Z"/><path class="cls-1" d="M110.11,5l.78.5.14.2-.25.48-.3.56-.29.56-.3.56-.28.56h0l-.29.54-.59,1.12-.08.15-.53.95-.43.77-.19.33-.64,1.08-.33.54-.1.19-.22.35-.34.54-.33.54-.33.53-.28.44-.06.1-.35.53-.34.53-.35.53-.36.52-.35.53-.36.53-.18.26-.18.26-.14.21,0,0-.21.24-.2.24-.21.25-.21.24-.2.23h0l-.22.24-.22.24-.21.24-.22.23L99.07,23l-.18-1.23.15-.28.15-.28.15-.27.15-.28v0l.14-.26.15-.28.15-.27.15-.28.15-.28,0-.06.13-.2.17-.26.18-.26.34-.53.34-.52.33-.53.34-.53.33-.53.34-.53.06-.09.27-.43.34-.53.34-.53.33-.53.23-.35.11-.18.35-.52.68-1.06.21-.31.5-.73.62-.9.1-.14.73-1,.37-.51h0l.39-.5.38-.51.38-.51.38-.51.32-.43Z"/><path class="cls-1" d="M117.45,14.8l-.15.89-.43.34-.42.35-.43.34-.42.34-.43.34-.12.1-.31.24-.43.34-.43.33-.78.61-.09.06-.87.66-.43.33-.33.26-.11.07-.44.32-.44.32-.4.3,0,0-.44.31-.44.32-.22.15-.22.16-.09.06-.13.1-.22.16-.22.15-.22.16-.22.16-.21.16-.22.16-.22.16-.21.16-.22.16-.21.17-.12.09-.09.07-.22.16-.21.16-.21.17-.21.16L105,25h0l-.22.16-.21.16-.21.17-.22.16-.18.15h0l-.34,0-.32.05h-.41l0-.41.08-.31.06-.35v0l.17-.17.19-.2.2-.19.19-.2.2-.19h0l.2-.18.21-.19.2-.18.21-.19.2-.18.09-.08.12-.1.21-.18.21-.18.21-.17L106,22l.22-.18.21-.17.21-.18.22-.17.21-.17.22-.17.13-.11.09-.07.21-.16.22-.17.44-.33.44-.34,0,0,.41-.3.45-.32.45-.32.11-.07.34-.23.46-.3.91-.61.09-.05.83-.54.46-.29.46-.29.33-.22.13-.08.45-.29.46-.3.45-.29.45-.3.45-.3Z"/><path class="cls-1" d="M139,36.24l-.53.71-2.12.86-.77.31-1,.4-.48.18-.87.35-.59.2-.73.25-.73.25-.74.26-.73.25-.73.26-.73.26-.47.16-.26.09-.73.25-.74.25-.73.25-.73.25-.73.25-.73.26-.73.26-.12,0-.61.2-.73.24-.74.24-.73.25-.23.07-.51.16-.73.23-.35.11-.4.11-.69.19-.06,0-.44-.06-.42,0h0l-.39,0-.39,0h0l-.37-.17.17-.37,0,0,.28-.26.27-.28,0,0,.3-.31.29-.33,0-.06.66-.3.37-.17.35-.14.72-.29.5-.19.23-.09.73-.26.74-.26.73-.27.62-.21.12,0,.74-.24.74-.23.75-.24.74-.23.74-.23.75-.22.74-.23.26-.08.49-.14.75-.21.75-.21.75-.21.75-.21.75-.21.74-.21.6-.16.91-.21.51-.11,1-.22.8-.17,2.24-.49Z"/><path class="cls-1" d="M114.87,63l.33,0,.32,0,.32,0,.33,0h0l.3,0,.32.05.32,0,.32.05.32,0,.32.06h.07l.24,0,.32.06.32.07.31.06.32.07.31.07.32.07.31.07.31.07.32.07.31.08.31.07.31.07.22.06.4.1.62.17.62.16.61.17,1.23.34.61.17.11,0,.5.14.6.18.61.18.32.09.28.09.3.1.3.09.3.09.3.1.22.06.08,0,.29.12.29.12.3.12.05,0,.24.1.29.13.29.13.29.12.18.08.11,0,.3.12.29.12.3.12.29.11.3.11.5.68-.71.44h-2.28l-.33,0-.32,0h-.33l-.32,0-.33,0-.32,0h-.09l-.23,0-.31-.07-.32-.06-.31-.07-.32-.07-.29-.07-.33-.08L127,68.5l-.61-.17-.51-.13-.11,0-.61-.18-1.22-.36-.61-.18-.6-.18-.61-.17-.4-.11-.21-.07-.3-.09-.3-.09-.3-.09-.3-.09-.3-.09-.3-.08-.3-.09-.3-.08-.3-.08-.31-.09-.3-.08-.3-.08-.23-.06-.07,0-.3-.08-.3-.08-.3-.08-.3-.07-.3-.08-.29-.07h0l-.3-.08-.3-.08-.3-.07-.3-.08-.09,0-.15-.47.19-1.18.29-.4Z"/><path class="cls-1" d="M109.62,68l.23,0,.25,0h.27l.29,0h.08l.1.09.15.11.18.15.1.09.28.25.06,0,.21.19.28.25.28.24.28.25L113,70l.12.1.16.14.28.25.29.24.18.15.1.1.28.25.28.25.18.16.1.1.26.26.27.27.27.26.25.24,0,0,.26.27.54.54.53.52h0l.53.54.54.54.53.53.15,1.14-1.15.06-.62-.44-.62-.43-.62-.43h0l-.62-.43-.62-.44-.32-.22,0,0-.28-.21-.31-.23-.31-.23-.31-.23-.11-.08-.19-.16-.3-.25-.29-.25-.11-.1-.18-.16-.28-.26-.28-.27-.16-.15-.12-.12-.27-.27-.27-.28-.27-.27-.27-.28-.2-.22-.07-.06-.26-.29-.09-.1-.16-.19-.12-.15-.09-.11V69.5l0-.29,0-.28v-.26l0-.23V68Z"/></g></g></svg>